<svg version="1.2" xmlns="http://www.w3.org/2000/svg" viewBox="0 0 256 256" width="256" height="256"><style>.a{fill:#a5027d}.b{fill:#fff}</style><path fill-rule="evenodd" class="a" d="m128 256c-70.8 0-128-57.2-128-128 0-70.8 57.2-128 128-128 70.8 0 128 57.2 128 128 0 70.8-57.2 128-128 128z"/><path fill-rule="evenodd" class="b" d="m88.5 148.2c0 16.2-10.9 24-32.7 24h-27.5v-85.4h29.6c21.1 0 29.9 9.3 29.9 21.5 0 10.9-5.2 16.4-15.3 19.7 10.6 1.6 16 8.8 16 20.2zm-21.6-1.7c0-6.7-2.6-10.4-9.8-10.4h-6.9v20.6h6.4c6.8 0 10.3-3.7 10.3-10.2zm-1.2-34c0-6.9-4.4-9.7-11.1-9.7h-4.4v19.3h4.4c6.7-0.1 11.1-4 11.1-9.6zm100.3 28.5c0 20.4-11.4 32.2-32.4 32.2-22.2 0-32.6-11.6-32.6-29v-57.4h23.1v54.6c0 9.5 3.3 13.9 9.9 13.9 7.4 0 10.5-4.2 10.5-15.4v-53.1h21.5zm69.2 4.4c0 16.7-12.1 27.8-32.3 27.8-7.4 0-14.6-0.9-23.4-2.8l1.1-18.7c7 3 12.7 3.7 18.8 3.7 7.1 0 12.1-2.4 12.1-7.4 0-4.8-2.6-7.7-15.3-12.1-12.3-4.2-18.3-12.7-18.3-25 0-15.2 12.3-25 30.8-25 7.2 0 14.1 1 22.2 2.8l-0.9 16.7c-5.3-2.6-12.1-4.2-17.4-4.2-7.7 0-11.2 3.3-11.2 7.9 0 4.4 2.8 7.4 14.2 11.8 14.3 5.5 19.6 13 19.6 24.5z"/></svg>