<svg version="1.2" xmlns="http://www.w3.org/2000/svg" viewBox="0 0 256 256" width="256" height="256"><style>.a{fill:#324a5e}.b{fill:#2b3b4e}.c{fill:#b8c9d9}.d{fill:#9fb2c1}.e{fill:#e6f3ff}.f{fill:#cfdbe6}.g{fill:#ffd15d}.h{fill:#f9b54c}</style><path fill-rule="evenodd" class="a" d="m128 256c-70.8 0-128-57.2-128-128 0-70.8 57.2-128 128-128 70.8 0 128 57.2 128 128 0 70.8-57.2 128-128 128z"/><path fill-rule="evenodd" class="b" d="m80.5 89.7h0.5z"/><path class="b" d="m255.9 132.3l-79.8-79.8-16 49.6-16.3 23.2 16.3 15.8v3.7l-51.9-51.9-27.2-3.2-15.7 7.5-4.9 111.4 45.4 45.5c7.2 1.2 14.6 1.9 22.2 1.9 69.2 0 125.6-55 127.9-123.7z"/><path fill-rule="evenodd" class="c" d="m176.1 52.5v39.1h-32.3v-39.1z"/><path fill-rule="evenodd" class="d" d="m176.1 52.5v39.1h-16.5v-39.1z"/><path fill-rule="evenodd" class="e" d="m155.6 56.9v13h-6.3v-13z"/><path fill-rule="evenodd" class="f" d="m170.6 56.9v13h-6.3v-13z"/><path class="g" d="m136.8 209.3c-14.4 0-26.1-11.7-26.1-26.2v-70.9c0-11.1-9.1-20.1-20.1-20.1h-5.2c-11.1 0-20.1 9-20.1 20.1v94.1c0 1.6-1.4 3-3 3-1.7 0-3-1.4-3-3v-94.1c0-14.4 11.7-26.2 26.1-26.2h5.2c14.4 0 26.1 11.8 26.1 26.2v70.9c0 11.1 9 20.2 20.1 20.2 11.1 0 20.1-9.1 20.1-20.2v-68c0-1.7 1.4-3 3.1-3 1.6 0 3 1.3 3 3v68c0 14.5-11.8 26.2-26.2 26.2z"/><path class="h" d="m163 115.1c0-1.7-1.4-3-3-3q-0.2 0-0.4 0v83.9c2.1-3.8 3.4-8.2 3.4-12.9z"/><path class="e" d="m169 128.1h-18c-5.9 0-10.6-4.7-10.6-10.5v-41.6h39.1v41.6c0 5.8-4.7 10.5-10.5 10.5z"/><path class="f" d="m159.6 76v52.1h9.4c5.8 0 10.5-4.7 10.5-10.5v-41.6z"/></svg>