<svg version="1.2" xmlns="http://www.w3.org/2000/svg" viewBox="0 0 256 256" width="256" height="256"><style>.a{fill:#f0c900}.b{fill:#008754}</style><path fill-rule="evenodd" class="a" d="m128 256c-70.8 0-128-57.2-128-128 0-70.8 57.2-128 128-128 70.8 0 128 57.2 128 128 0 70.8-57.2 128-128 128z"/><path class="b" d="m128 6c-67.2 0-122 54.8-122 122 0 67.2 54.8 121.6 122 121.6 67.2 0 121.6-54.4 121.6-121.6 0-67.2-54.4-122-121.6-122zm0 32c49.6 0 89.6 40.4 89.6 90 0 49.6-40 89.6-89.6 89.6-49.6 0-90-40-90-89.6 0-49.6 40.4-90 90-90z"/><path class="b" d="m80.8 194v-132.4h20v56.8h54.4v-56.8h20v132.4h-20v-58h-54.4v58"/></svg>