<svg version="1.2" xmlns="http://www.w3.org/2000/svg" viewBox="0 0 256 256" width="256" height="256"><style>.a{fill:#76c2af}.b{opacity:.2;fill:#231f20}.c{fill:#4f5d73}.d{fill:none;stroke:#fff;stroke-linecap:round;stroke-linejoin:round;stroke-width:12}</style><path fill-rule="evenodd" class="a" d="m128 256c-70.8 0-128-57.2-128-128 0-70.8 57.2-128 128-128 70.8 0 128 57.2 128 128 0 70.8-57.2 128-128 128z"/><path class="b" d="m184 112c-22 0-40 18-40 40 0 22 18 40 40 40 22 0 40-18 40-40 0-22-18-40-40-40zm0 16c13.2 0 24 10.8 24 24 0 13.2-10.8 24-24 24-13.2 0-24-10.8-24-24 0-13.2 10.8-24 24-24z"/><path class="b" d="m72 112c-22 0-40 18-40 40 0 22 18 40 40 40 22 0 40-18 40-40 0-22-18-40-40-40zm0 12c15.6 0 28 12.4 28 28 0 15.6-12.4 28-28 28-15.6 0-28-12.4-28-28 0-15.6 12.4-28 28-28z"/><path class="c" d="m72 104c-22 0-40 18-40 40 0 22 18 40 40 40 22 0 40-18 40-40 0-22-18-40-40-40zm0 12c15.6 0 28 12.4 28 28 0 15.6-12.4 28-28 28-15.6 0-28-12.4-28-28 0-15.6 12.4-28 28-28z"/><path class="c" d="m184 104c-22 0-40 18-40 40 0 22 18 40 40 40 22 0 40-18 40-40 0-22-18-40-40-40zm0 12c15.6 0 28 12.4 28 28 0 15.6-12.4 28-28 28-15.6 0-28-12.4-28-28 0-15.6 12.4-28 28-28z"/><path class="b" d="m189.2 149.2l-36-70c-0.8-2-2.8-3.2-5.2-3.2h-20c-3.2 0-6 2.8-6 6 0 3.2 2.8 6 6 6h16.4l12.4 24h-34.8l-8.4-16.8c-1.2-2-3.2-3.2-5.6-3.2h-20c-3.2 0-6 2.8-6 6 0 3.2 2.8 6 6 6h16.4l5.6 11.2-41.6 34c-2 1.6-2.8 4.4-2 6.8 0.8 2.4 3.2 4 5.6 4h56c1.6 0 3.2-0.8 4.4-1.6l32-32 14.4 28.4c1.2 2 3.2 3.2 5.2 3.2 0.8 0 2-0.4 2.8-0.8 2.8-1.2 4-4.8 2.4-8zm-100.4-1.2l26.8-21.6 10.8 21.2-0.8 0.4zm46-9.6l-7.2-14.4h22z"/><path fill-rule="evenodd" class="d" d="m184 144l-36-70h-20"/><path fill-rule="evenodd" class="d" d="m132 136l-24-46h-20"/><path fill-rule="evenodd" class="d" d="m72 146h56l36-36h-48z"/></svg>