<svg version="1.2" xmlns="http://www.w3.org/2000/svg" viewBox="0 0 256 256" width="256" height="256"><style>.a{fill:#008d4f}.b{fill:#fff}</style><path fill-rule="evenodd" class="a" d="m128 256c-70.8 0-128-57.2-128-128 0-70.8 57.2-128 128-128 70.8 0 128 57.2 128 128 0 70.8-57.2 128-128 128z"/><path fill-rule="evenodd" class="b" d="m212 162c0 31.1-30.1 67.2-80.8 67.2-28.2 0-60.9-12.7-78.7-28.7v-40.3c16.9 24.3 47.7 43.1 78.7 43.1 19 0 34.3-10.9 34.3-22.5 0-43.7-114.6-16.7-114.6-92.1 0-39.6 38.6-60.9 73.4-60.9 28.9 0 54.8 9.5 75.4 25.4v33.6c-17.8-19.2-44.6-36.1-76.1-36.1-17.8 0-28 9.5-28 20.6 0 46.8 116.4 13.9 116.4 90.7z"/></svg>