<svg version="1.2" xmlns="http://www.w3.org/2000/svg" viewBox="0 0 256 256" width="256" height="256"><style>.a{fill:#90dfaa}.b{fill:#324a5e}.c{fill:#ff7058}.d{fill:#ffd05b}</style><path fill-rule="evenodd" class="a" d="m128 256c-70.8 0-128-57.2-128-128 0-70.8 57.2-128 128-128 70.8 0 128 57.2 128 128 0 70.8-57.2 128-128 128z"/><path fill-rule="evenodd" class="b" d="m190 187c-10.9 0-19.8-8.9-19.8-19.8 0-11 8.9-19.8 19.8-19.8 11 0 19.8 8.8 19.8 19.8 0 10.9-8.8 19.8-19.8 19.8z"/><path fill-rule="evenodd" class="b" d="m71.6 187c-10.9 0-19.8-8.9-19.8-19.8 0-11 8.9-19.8 19.8-19.8 11 0 19.8 8.8 19.8 19.8 0 10.9-8.8 19.8-19.8 19.8z"/><path class="c" d="m161.2 55.8h14.4c3.2 0 5.8-2.6 5.8-5.8 0-3.2-2.6-5.8-5.8-5.8h-45.3c-3.2 0-5.8 2.6-5.8 5.8 0 3.2 2.6 5.8 5.8 5.8h18.8l20 75.6-15.7 15.7h-48.9c-4.8-13.2-18.8-23-33.7-23-19 0-35.6 15.3-35.6 32.8 0 3.2 2.6 5.7 5.8 5.7 3.2 0 5.8-2.5 5.8-5.7 0-10.1 10.2-21.2 24-21.2 12.5 0 22 9.5 23.6 18.3 0.5 2.7 3.1 4.7 5.8 4.7 0.1 0 0.3 0 0.4 0h55.2c1.5 0 3-0.6 4.1-1.6l19.8-19.9c1.5-1.4 2.1-3.7 1.5-5.7z"/><path fill-rule="evenodd" class="d" d="m190 176.7c-5.2 0-9.5-4.2-9.5-9.5 0-5.2 4.3-9.5 9.5-9.5 5.3 0 9.5 4.3 9.5 9.5 0 5.3-4.2 9.5-9.5 9.5z"/><path fill-rule="evenodd" class="d" d="m71.6 176.7c-5.2 0-9.5-4.2-9.5-9.5 0-5.2 4.3-9.5 9.5-9.5 5.3 0 9.5 4.3 9.5 9.5 0 5.3-4.2 9.5-9.5 9.5z"/></svg>