<svg version="1.2" xmlns="http://www.w3.org/2000/svg" viewBox="0 0 256 256" width="256" height="256"><style>.a{fill:#4ab8a1}.b{fill:#242424}.c{fill:#f5f5f5}.d{fill:#ffd464}.e{fill:#f2c95f}.f{fill:#cc584c}.g{fill:#0d0d0d}.h{fill:#b3b3b3}.i{fill:#ccc}.j{fill:#c2e2f2}.k{fill:#fff}.l{fill:#ffc066}</style><path fill-rule="evenodd" class="a" d="m128 256c-70.8 0-128-57.2-128-128 0-70.8 57.2-128 128-128 70.8 0 128 57.2 128 128 0 70.8-57.2 128-128 128z"/><path class="b" d="m5.7 166c16.2 52.1 64.8 90 122.3 90 57.5 0 106.1-37.9 122.3-90z"/><path fill-rule="evenodd" class="c" d="m54 198v4h-24v-4z"/><path fill-rule="evenodd" class="c" d="m88 198v4h-24v-4z"/><path fill-rule="evenodd" class="c" d="m122 198v4h-24v-4z"/><path fill-rule="evenodd" class="c" d="m156 198v4h-24v-4z"/><path fill-rule="evenodd" class="c" d="m190 198v4h-24v-4z"/><path fill-rule="evenodd" class="c" d="m224 198v4h-24v-4z"/><path class="d" d="m204.3 114h-28.8l-21.1-30c-2.7-3.8-7-6-11.9-6h-55.4c-4.8 0-9.1 2.2-11.8 6l-21.2 30h-24.1c-1.1 0-2 0.9-2 2v38c0 1.1 0.9 2 2 2h14.1c1-12.3 11.3-22 23.9-22 12.6 0 22.9 9.7 23.9 22h72.2c1-12.3 11.3-22 23.9-22 12.6 0 22.9 9.7 23.9 22h14.1c1.1 0 2-0.9 2-2v-5.4c0-28.6-12.9-34.6-23.7-34.6z"/><path class="e" d="m60 134c-12.6 0-22.9 9.7-23.9 22h8c0.9-11 9.2-19.8 19.9-21.6q-2-0.4-4-0.4z"/><path class="e" d="m150.4 84l21.1 30h4l-21.1-30c-2.7-3.8-7-6-11.9-6h-4c4.9 0 9.2 2.2 11.9 6z"/><path class="e" d="m180 134c-12.6 0-22.9 9.7-23.9 22h8c0.9-11 9.2-19.8 19.9-21.6q-1.9-0.4-4-0.4z"/><path class="e" d="m204.3 114h-8c10.8 0 23.7 6 23.7 34.6v5.4c0 1.1-0.9 2-2 2h8c1.1 0 2-0.9 2-2v-5.4c0-28.6-12.9-34.6-23.7-34.6z"/><path class="c" d="m220 120.4c-4.5-4.9-10.4-6.4-15.7-6.4h-28.8-121.4-24.1c-1.1 0-2 0.9-2 2v14h192z"/><path class="f" d="m38 124v12c0 3.3-2.7 6-6 6h-4v-18z"/><path fill-rule="evenodd" class="g" d="m68 178c-11.1 0-20-8.9-20-20 0-11.1 8.9-20 20-20 11.1 0 20 8.9 20 20 0 11.1-8.9 20-20 20z"/><path fill-rule="evenodd" class="h" d="m68 172c-7.7 0-14-6.3-14-14 0-7.7 6.3-14 14-14 7.7 0 14 6.3 14 14 0 7.7-6.3 14-14 14z"/><path fill-rule="evenodd" class="i" d="m68 170c-6.6 0-12-5.4-12-12 0-6.6 5.4-12 12-12 6.6 0 12 5.4 12 12 0 6.6-5.4 12-12 12z"/><path fill-rule="evenodd" class="b" d="m68 162c-2.2 0-4-1.8-4-4 0-2.2 1.8-4 4-4 2.2 0 4 1.8 4 4 0 2.2-1.8 4-4 4z"/><path fill-rule="evenodd" class="g" d="m188 178c-11.1 0-20-8.9-20-20 0-11.1 8.9-20 20-20 11.1 0 20 8.9 20 20 0 11.1-8.9 20-20 20z"/><path fill-rule="evenodd" class="h" d="m188 172c-7.7 0-14-6.3-14-14 0-7.7 6.3-14 14-14 7.7 0 14 6.3 14 14 0 7.7-6.3 14-14 14z"/><path fill-rule="evenodd" class="i" d="m188 170c-6.6 0-12-5.4-12-12 0-6.6 5.4-12 12-12 6.6 0 12 5.4 12 12 0 6.6-5.4 12-12 12z"/><path fill-rule="evenodd" class="b" d="m188 162c-2.2 0-4-1.8-4-4 0-2.2 1.8-4 4-4 2.2 0 4 1.8 4 4 0 2.2-1.8 4-4 4z"/><path class="j" d="m116 114h49.7l-17.9-25.4c-1.2-1.7-3-2.6-5.3-2.6h-26.5z"/><path class="j" d="m112 86h-24.9c-2.2 0-4.1 0.9-5.3 2.7l-17.9 25.3h48.1z"/><path class="k" d="m217.4 118h-3.4c-4.4 0-6.3 3.1-4.1 7l2.2 4c2.2 3.9 7.5 7 11.9 7 1 0 2-0.2 2.9-0.6-1.8-8.8-5.3-14.2-9.5-17.4z"/><path class="l" d="m28 118h4c3.3 0 6 2.7 6 6h-10z"/><path fill-rule="evenodd" class="l" d="m140 78h-54l8-20h38z"/><path fill-rule="evenodd" class="b" d="m48 114v8h-8v-8z"/><path fill-rule="evenodd" class="b" d="m56 122v8h-8v-8z"/><path fill-rule="evenodd" class="b" d="m64 114v8h-8v-8z"/><path fill-rule="evenodd" class="b" d="m72 122v8h-8v-8z"/><path fill-rule="evenodd" class="b" d="m80 114v8h-8v-8z"/><path fill-rule="evenodd" class="b" d="m88 122v8h-8v-8z"/><path fill-rule="evenodd" class="b" d="m96 114v8h-8v-8z"/><path fill-rule="evenodd" class="b" d="m104 122v8h-8v-8z"/><path fill-rule="evenodd" class="b" d="m112 114v8h-8v-8z"/><path fill-rule="evenodd" class="b" d="m120 122v8h-8v-8z"/><path fill-rule="evenodd" class="b" d="m128 114v8h-8v-8z"/><path fill-rule="evenodd" class="b" d="m136 122v8h-8v-8z"/><path fill-rule="evenodd" class="b" d="m144 114v8h-8v-8z"/><path fill-rule="evenodd" class="b" d="m152 122v8h-8v-8z"/><path fill-rule="evenodd" class="b" d="m160 114v8h-8v-8z"/><path fill-rule="evenodd" class="b" d="m168 122v8h-8v-8z"/><path fill-rule="evenodd" class="b" d="m176 114v8h-8v-8z"/><path fill-rule="evenodd" class="b" d="m184 122v8h-8v-8z"/><path fill-rule="evenodd" class="b" d="m192 114v8h-8v-8z"/><path fill-rule="evenodd" class="b" d="m200 122v8h-8v-8z"/><path fill-rule="evenodd" class="b" d="m208 114v8h-8v-8z"/><path fill-rule="evenodd" class="c" d="m133.6 62h-41.2l-4.4 11v1h50.4z"/><path fill-rule="evenodd" class="b" d="m134.4 64h-0.4v4h2z"/><path fill-rule="evenodd" class="b" d="m122 64v4h-4v-4z"/><path fill-rule="evenodd" class="b" d="m130 64v4h-4v-4z"/><path fill-rule="evenodd" class="b" d="m114 64v4h-4v-4z"/><path fill-rule="evenodd" class="b" d="m98 64v4h-4v-4z"/><path fill-rule="evenodd" class="b" d="m106 64v4h-4v-4z"/><path fill-rule="evenodd" class="b" d="m134 68v4h-4v-4z"/><path fill-rule="evenodd" class="b" d="m94 68v4h-4v-4z"/><path fill-rule="evenodd" class="b" d="m102 68v4h-4v-4z"/><path fill-rule="evenodd" class="b" d="m126 68v4h-4v-4z"/><path fill-rule="evenodd" class="b" d="m118 68v4h-4v-4z"/><path fill-rule="evenodd" class="b" d="m110 68v4h-4v-4z"/></svg>