<svg version="1.2" xmlns="http://www.w3.org/2000/svg" viewBox="0 0 256 256" width="256" height="256"><style></style><path  d="m17.1 51.2c-9.5 0-17.1 7.6-17.1 17.1v119.4c0 9.5 7.6 17.1 17.1 17.1h221.8c9.5 0 17.1-7.6 17.1-17.1v-119.4c0-9.5-7.6-17.1-17.1-17.1zm0 17.1h25.6c4.7 0 8.6 3.8 8.6 8.5 0 4.7-3.9 8.5-8.6 8.5-4.7 0-8.5-3.8-8.5-8.5l-8.5 8.5c4.7 0 8.5 3.9 8.5 8.6 0 4.7-3.8 8.5-8.5 8.5-4.7 0-8.6-3.8-8.6-8.5zm111 0c23.5 0 42.6 26.7 42.6 59.7 0 33-19.1 59.7-42.6 59.7-23.6 0-42.7-26.7-42.7-59.7 0-33 19.1-59.7 42.7-59.7zm85.3 0h25.6v25.6c0 4.7-3.8 8.5-8.5 8.5-4.7 0-8.6-3.8-8.6-8.5 0-4.7 3.9-8.6 8.6-8.6l-8.6-8.5c0 4.7-3.8 8.5-8.5 8.5-4.7 0-8.5-3.8-8.5-8.5 0-4.7 3.8-8.5 8.5-8.5zm-85.3 25.6c-5.5 0-9.1 1.8-11.7 4.2h23.3c-2.5-2.4-6.1-4.2-11.6-4.2zm-15 8.5c-0.7 1.6-1 2.9-1.3 4.3h32.6c-0.3-1.4-0.6-2.7-1.4-4.3zm-2.1 8.5v4.3h34.1v-4.3zm0 8.6v4.2h34.1v-4.2zm0 8.5v4.3h34.2v-4.3zm0 8.5l-4.3 4.3h34.1l4.3-4.3zm-8.5 8.6c0 0 0.6 1.7 1.7 4.2h38.8l-6.4-4.2zm-76.8 8.5c4.7 0 8.5 3.8 8.5 8.5 0 4.7-3.8 8.6-8.5 8.6l8.5 8.5c0-4.7 3.9-8.5 8.6-8.5 4.7 0 8.5 3.8 8.5 8.5 0 4.7-3.8 8.5-8.5 8.5h-25.6v-25.6c0-4.7 3.8-8.5 8.5-8.5zm80.9 0c0.8 1.5 1.3 2.7 2.3 4.3h38.7c1.1-2.4 1.8-4.3 1.8-4.3zm124 0c4.7 0 8.5 3.8 8.5 8.5v25.6h-25.6c-4.7 0-8.5-3.8-8.5-8.5 0-4.7 3.8-8.5 8.5-8.5 4.7 0 8.5 3.8 8.5 8.5l8.6-8.5c-4.7 0-8.6-3.9-8.6-8.6 0-4.7 3.9-8.5 8.6-8.5zm-118.4 8.5c1.4 1.6 2.8 3 4.5 4.3h24.2c1.7-1.3 3.2-2.8 4.3-4.3z"/></svg>