<svg version="1.2" xmlns="http://www.w3.org/2000/svg" viewBox="0 0 256 256" width="256" height="256"><style>.a{fill:#d82020}.b{fill:#fff}</style><path fill-rule="evenodd" class="a" d="m256 0v256h-256v-256z"/><path fill-rule="evenodd" class="b" d="m58.7 90v-12.9h-51.8v12.9h18v70.7h15.7v-70.7"/><path fill-rule="evenodd" class="b" d="m96.7 98.7c-1.1-0.5-3.5-0.7-4.6-0.7-6.5 0-11 2.7-14.9 9.2l-1.2-8.1h-13.5v61.6h14.9v-33.7c0-7.8 2-15.8 10.9-15.8 1.4 0 2.8 0.3 4.1 0.7"/><path fill-rule="evenodd" class="b" d="m135.4 160.7l-1.1-7.3c-3.5 5.4-8.6 8.4-15.5 8.4-12 0-18.2-7-18.2-18.4 0-12.8 9.7-19.7 23.7-19.7 4.4 0 7.3 0.7 9.5 1.1v-6.9c0-6.4-3.9-9.3-10.4-9.3-4.5 0-10.4 1-14.6 3.3l-2.5-10.4c6-2.8 13.6-3.5 20.1-3.5 14.4 0 21.8 6.7 21.8 17.5v33.8c0 3.8 0.6 7.6 1.1 11.4m-15.5-27.2c-1.6-0.6-4.4-1.1-8-1.1-7 0-10.1 4.8-10.1 10.3 0 5.2 2.2 9.1 7.7 9.1 5.7 0 10.4-4.2 10.4-9.7z"/><path fill-rule="evenodd" class="b" d="m243 160.7v-43.5c0-10.7-5.2-19.2-16.7-19.2-8.3 0-13.7 4.1-15.9 9.4-2-4.4-5.9-9.4-15.6-9.4-7.3 0-13.1 3.7-15.6 9.4l-1.1-8.3h-13.1v61.6h14.8v-38.7c0-6.1 2.4-13.4 8.9-13.4 5.7 0 7.9 3.9 7.9 9.8v42.3h14.8v-38.9c0-6.2 2.2-13.2 8.9-13.2 5.6 0 7.9 4.4 7.9 9.8v42.3"/></svg>