<svg version="1.2" xmlns="http://www.w3.org/2000/svg" viewBox="0 0 256 256" width="256" height="256"><style></style><path  d="m135.8 45.2c11.4 0.8 21.6-7.6 22.6-19.4 0.8-11.4-7.6-21.6-19.4-22.6-11.4-0.8-21.6 7.6-22.6 19.4-0.8 11.6 8 21.8 19.4 22.6z"/><path  d="m118 53.8c4-3 9-4.6 14.6-4.4 7 0.6 13.2 5 16.6 10.2l21 41.8 28.6 20c2.4 2 4 5 3.8 8.2-0.2 5.2-5 9-10.2 8.4-1.4 0-3-0.6-4.4-1.4l-30.8-21c-0.8-0.8-1.8-1.8-2.4-3l-8-15.6-9.4 41.6 37.2 44c0.8 1.4 1.4 3 1.8 4.4l10 53c0 1.2 0 2 0 3-0.6 8-7.4 13.4-15.2 13.2-6.4-0.6-11.2-5.2-12.8-11.2l-9.4-49.4-30.2-33.6-7 32.2c-0.2 1.4-2.4 4.6-3 5.8l-28.8 49c-3 4.4-7.6 7.4-13.2 6.8-8-0.6-13.8-7.4-13.2-15.2 0.2-2.4 1.2-4.4 2-6.2l27-45 22.4-99.4-14.6 11.8-8 35.4c-0.8 4.4-5.2 8.2-10 8-5.2-0.2-9-5-8.8-10.2 0-0.2 0-0.8 0.2-1.2l9-41.2c0.6-1.8 1.4-3.2 3-4.4z"/></svg>